<svg xmlns="http://www.w3.org/2000/svg" viewBox="0 0 144 144">
  <path d="M122.631 69.716l-4.394-2.72a59.613 59.613 0 00-.125-1.28l3.776-3.522c.384-.358.556-.888.452-1.401a1.506 1.506 0 00-.953-1.122l-4.827-1.805a56.156 56.156 0 00-.378-1.246l3.011-4.182a1.512 1.512 0 00-.984-2.377l-5.09-.828a52.936 52.936 0 00-.612-1.143l2.139-4.695a1.487 1.487 0 00.118-1.468 1.504 1.504 0 00-1.31-.826l-5.166.18a40.521 40.521 0 00-.816-.99l1.187-5.032a1.512 1.512 0 00-1.819-1.82l-5.031 1.186a43.921 43.921 0 00-.992-.816l.181-5.166a1.51 1.51 0 00-2.294-1.192l-4.694 2.14a54.147 54.147 0 00-1.143-.613l-.828-5.091a1.513 1.513 0 00-2.377-.984l-4.182 3.011a55.696 55.696 0 00-1.246-.378l-1.805-4.828a1.509 1.509 0 00-2.522-.5l-3.522 3.779a59.599 59.599 0 00-1.28-.125l-2.72-4.395a1.512 1.512 0 00-2.571 0l-2.72 4.395a59.613 59.613 0 00-1.28.125l-3.523-3.779a1.51 1.51 0 00-2.522.5l-1.805 4.828c-.418.12-.84.247-1.246.378l-4.182-3.011a1.514 1.514 0 00-2.377.984l-.828 5.091a54.147 54.147 0 00-1.143.613l-4.694-2.14a1.513 1.513 0 00-2.294 1.192l.18 5.166c-.334.267-.666.538-.992.816l-5.031-1.186a1.513 1.513 0 00-1.82 1.82l1.187 5.032c-.28.328-.554.656-.816.99l-5.166-.18a1.511 1.511 0 00-1.31.826 1.487 1.487 0 00.118 1.468l2.139 4.695a52.936 52.936 0 00-.612 1.143l-5.09.828a1.512 1.512 0 00-.984 2.377l3.011 4.182a56.156 56.156 0 00-.378 1.246l-4.828 1.805a1.506 1.506 0 00-.953 1.122 1.514 1.514 0 00.452 1.401l3.777 3.522a59.613 59.613 0 00-.125 1.28l-4.394 2.72a1.512 1.512 0 000 2.571l4.394 2.72c.036.429.077.853.125 1.28l-3.777 3.523a1.514 1.514 0 00-.452 1.401c.087.495.416.913.953 1.122l4.828 1.805c.122.42.25.84.378 1.246l-3.011 4.183a1.512 1.512 0 00.984 2.376l5.09.828c.2.39.404.777.612 1.143l-2.139 4.695a1.487 1.487 0 00-.118 1.468c.25.42.808.826 1.31.826l5.166-.18c.267.334.538.665.816.99l-1.187 5.032a1.513 1.513 0 001.82 1.82l5.031-1.187c.328.28.655.554.992.816l-.18 5.166a1.511 1.511 0 002.294 1.192l4.694-2.139c.378.21.759.417 1.143.613l.828 5.09a1.513 1.513 0 002.377.984l4.182-3.011c.417.143.83.27 1.246.378l1.805 4.828c.21.54.707.953 1.31.953.384 0 .738-.18.953-.452l3.523-3.777c.427.048.853.09 1.28.125l2.72 4.394a1.512 1.512 0 002.571 0l2.72-4.394a59.613 59.613 0 001.28-.125l3.522 3.777c.384.358.888.556 1.401.452a1.506 1.506 0 001.122-.953l1.805-4.828a56.156 56.156 0 001.246-.378l4.182 3.011a1.513 1.513 0 002.377-.984l.828-5.09c.384-.196.765-.403 1.143-.613l4.694 2.139a1.513 1.513 0 002.294-1.192l-.18-5.166c.334-.267.665-.538.992-.816l5.031 1.187a1.513 1.513 0 001.82-1.82l-1.187-5.032c.28-.328.554-.656.816-.99l5.166.18a1.511 1.511 0 001.31-.826 1.487 1.487 0 00-.118-1.468l-2.139-4.695c.209-.366.412-.753.612-1.143l5.09-.828a1.512 1.512 0 00.984-2.376l-3.011-4.183c.128-.406.256-.826.378-1.246l4.827-1.805c.538-.21.953-.707.953-1.31 0-.384-.18-.738-.452-.953l-3.776-3.523c.048-.427.089-.851.125-1.28l4.394-2.72a1.512 1.512 0 000-2.571z" fill="#B7410E"/>
</svg>